<svg xmlns="http://www.w3.org/2000/svg" width="21.399" height="25.053" viewBox="0 0 21.399 25.053">
  <g id="apple" transform="translate(-37.336)">
    <g id="Group_4" data-name="Group 4" transform="translate(47.621)">
      <g id="Group_3" data-name="Group 3">
        <path id="Path_10" data-name="Path 10" d="M252.633,0a5.879,5.879,0,0,0-3.806,2.061,5.106,5.106,0,0,0-1.246,3.968,4.962,4.962,0,0,0,3.841-1.962A5.512,5.512,0,0,0,252.633,0Z" transform="translate(-247.522)"/>
      </g>
    </g>
    <g id="Group_6" data-name="Group 6" transform="translate(37.336 5.864)">
      <g id="Group_5" data-name="Group 5">
        <path id="Path_11" data-name="Path 11" d="M58.01,122.381a6.342,6.342,0,0,0-4.787-2.541c-2.247,0-3.2,1.076-4.758,1.076-1.61,0-2.833-1.073-4.776-1.073A6.5,6.5,0,0,0,38.46,123c-1.812,2.809-1.5,8.09,1.434,12.589,1.051,1.61,2.454,3.42,4.289,3.435,1.633.016,2.093-1.048,4.306-1.058s2.632,1.073,4.262,1.055c1.837-.014,3.316-2.02,4.367-3.629a18.05,18.05,0,0,0,1.617-3.038A5.523,5.523,0,0,1,58.01,122.381Z" transform="translate(-37.336 -119.84)"/>
      </g>
    </g>
  </g>
</svg>
