<svg id="facebook_3_" data-name="facebook (3)" xmlns="http://www.w3.org/2000/svg" width="24.766" height="24.766" viewBox="0 0 24.766 24.766">
  <path id="Path_8" data-name="Path 8" d="M24.766,12.383A12.386,12.386,0,0,1,14.318,24.616V15.963H17.2l.549-3.579H14.318V10.06a1.79,1.79,0,0,1,2.018-1.934H17.9V5.079a19.047,19.047,0,0,0-2.772-.242c-2.828,0-4.677,1.714-4.677,4.818v2.728H7.3v3.579h3.144v8.653A12.384,12.384,0,1,1,24.766,12.383Z" transform="translate(0 0)" fill="#1877f2"/>
  <path id="Path_9" data-name="Path 9" d="M160.9,111.125l.549-3.579h-3.434v-2.323a1.79,1.79,0,0,1,2.018-1.934h1.561v-3.047a19.042,19.042,0,0,0-2.772-.242c-2.829,0-4.677,1.714-4.677,4.818v2.728H151v3.579h3.144v8.653a12.514,12.514,0,0,0,3.87,0v-8.653Z" transform="translate(-143.696 -95.163)" fill="#fff"/>
</svg>
