<svg id="search" xmlns="http://www.w3.org/2000/svg" width="21.566" height="21.566" viewBox="0 0 21.566 21.566">
  <path id="Path_4" data-name="Path 4" d="M4.779,145.477l-.751,2.8-2.744.058a10.8,10.8,0,0,1-.079-10.069h0l2.443.448,1.07,2.428a6.435,6.435,0,0,0,.06,4.333Z" transform="translate(0 -132.444)" fill="#fbbb00"/>
  <path id="Path_5" data-name="Path 5" d="M271.986,208.176a10.779,10.779,0,0,1-3.844,10.423h0l-3.077-.157-.435-2.718a6.427,6.427,0,0,0,2.765-3.282h-5.766v-4.266h10.358Z" transform="translate(-250.608 -199.407)" fill="#518ef8"/>
  <path id="Path_6" data-name="Path 6" d="M46.757,315.568h0a10.787,10.787,0,0,1-16.249-3.3L34,309.409a6.413,6.413,0,0,0,9.241,3.283Z" transform="translate(-29.224 -296.376)" fill="#28b446"/>
  <path id="Path_7" data-name="Path 7" d="M45.084,2.482l-3.493,2.86A6.412,6.412,0,0,0,32.137,8.7L28.625,5.824h0a10.785,10.785,0,0,1,16.46-3.342Z" transform="translate(-27.418)" fill="#f14336"/>
</svg>
